<svg width="67" height="36" viewBox="0 0 67 36" fill="none" xmlns="http://www.w3.org/2000/svg">
<path d="M52.9048 1.20255L48.1096 20.5358L43.3009 1.20255H29.4119V8.34166C27.7242 2.0943 21.5329 0.527425 16.0007 0.438417C9.25523 0.351089 1.78122 3.24805 1.52197 12.0884H10.8514C10.8514 9.41983 13.3167 7.89158 15.6448 7.9302C18.5033 7.90669 19.8181 9.11586 19.8842 10.9985C19.786 12.6325 18.8134 13.7695 15.6685 13.7695H12.5305V20.1848H15.3788C16.997 20.1848 19.2488 21.058 19.3369 23.342C19.4454 26.0643 17.5358 27.2601 15.1856 27.2836C10.9903 27.1291 9.90758 23.9349 9.90758 21.1874H0.22406C0.264726 23.0381 0.203727 35.1011 15.3805 35.0121C22.6512 35.0776 27.9428 32.048 29.4356 27.8714V34.2732H38.7751V13.4151L43.9397 34.2732H52.2846L57.4678 13.4386V34.2917H66.9971V1.20255H52.9048ZM29.4424 20.4904C28.2529 18.0519 26.5788 16.9855 25.6367 16.6479C27.6141 15.7763 28.6494 14.594 29.4424 12.2379V20.4904Z" fill="white"/>
</svg>
