<svg width="82" height="50" viewBox="0 0 82 50" fill="none" xmlns="http://www.w3.org/2000/svg">
<path d="M2.37841 49.4221C2.39563 49.3569 2.86953 46.8145 3.43164 43.7733L4.45361 38.2432H5.80378C6.54655 38.2432 7.15422 38.261 7.15422 38.2842C7.15422 38.3073 6.97462 39.2849 6.75502 40.4562C6.53516 41.6271 6.3553 42.6051 6.3553 42.6288C6.3553 42.6522 7.27422 42.664 8.39712 42.654L10.4384 42.6361L10.8442 40.4565L11.2498 38.2758L12.596 38.2579C13.3366 38.2479 13.9424 38.265 13.9424 38.2963C13.9424 38.3489 11.9886 48.9666 11.9065 49.3595L11.8686 49.5407H10.5083H9.1481L9.18333 49.3921C9.25167 49.1054 10.0156 44.9518 10.0156 44.8687C10.0156 44.8016 9.59074 44.7845 7.98732 44.7845H5.95875L5.92511 44.9331C5.85915 45.2263 5.09095 49.4092 5.09095 49.4742C5.09095 49.5173 4.59983 49.541 3.71905 49.541C2.43298 49.5404 2.34901 49.5328 2.37841 49.4221V49.4221Z" fill="white"/>
<path d="M2.45023 49.5181C2.36784 49.5047 2.35778 49.4907 2.37288 49.4142C2.38268 49.3655 2.85128 46.8319 3.41498 43.7841L4.43986 38.2432H5.80884H7.17756L7.14736 38.3994C6.91319 39.6141 6.36671 42.6238 6.37863 42.6359C6.40592 42.6651 8.83634 42.6719 9.64851 42.6448L10.4289 42.6198L10.8363 40.4394C11.0601 39.2402 11.2442 38.2553 11.2448 38.2503C11.2461 38.2458 11.8607 38.2432 12.6114 38.2432H13.9764L13.9586 38.3168C13.9491 38.3576 13.4847 40.8662 12.9271 43.8917C12.3695 46.9163 11.9052 49.425 11.8954 49.4657L11.8773 49.5402H10.5139C9.76374 49.5402 9.15024 49.5365 9.15024 49.5315C9.15024 49.5267 9.34467 48.4761 9.58255 47.1953C9.87897 45.5956 10.0035 44.8579 9.97989 44.834C9.93512 44.7892 5.95612 44.7658 5.95612 44.8095C5.95612 44.8271 5.82209 45.5601 5.65812 46.4387C5.49441 47.3179 5.30024 48.3617 5.2274 48.7591C5.15402 49.1572 5.08462 49.4915 5.07349 49.5033C5.04833 49.527 2.59142 49.5415 2.45023 49.5181V49.5181Z" fill="white"/>
<path d="M16.4195 49.7042C15.3514 49.5656 14.5056 48.9334 14.2322 48.07C14.1371 47.7683 14.1313 47.1574 14.2211 46.8318C14.4603 45.9663 15.2018 45.2765 16.3098 44.8886C17.1413 44.5967 18.5636 44.3676 19.9561 44.3C20.2634 44.2855 20.4419 44.2637 20.4639 44.2374C20.4827 44.2156 20.5296 44.0733 20.568 43.9216C20.7913 43.0448 20.3323 42.5033 19.3678 42.5046C18.6269 42.5062 18.1016 42.772 17.7384 43.3296C17.6653 43.4411 17.589 43.5834 17.5681 43.6465C17.5461 43.7135 17.5085 43.7598 17.4767 43.7598C17.3604 43.7598 15.1228 43.5224 15.1088 43.5079C15.1008 43.5005 15.1787 43.327 15.2828 43.1223C15.8934 41.9226 16.954 41.2475 18.5654 41.0318C19.0353 40.969 20.0539 40.9611 20.5142 41.0171C21.8808 41.1817 22.8281 41.7953 23.1296 42.7076C23.1998 42.9204 23.209 43.01 23.2069 43.429C23.2048 43.9655 23.1669 44.2198 22.7619 46.3837C22.4265 48.1754 22.4114 48.2833 22.4112 48.9373L22.4109 49.5077H21.1407L19.8705 49.5083L19.8464 49.2847C19.83 49.1356 19.8403 48.9181 19.8777 48.6323C19.9537 48.0397 19.9527 48.0355 19.7908 48.3025C19.6181 48.5857 19.0865 49.1204 18.8274 49.2711C18.1826 49.6453 17.2544 49.8131 16.4195 49.7042V49.7042ZM18.5598 48.1165C18.8335 48.0234 19.0229 47.9019 19.2769 47.66C19.5521 47.3975 19.7556 47.1016 19.9145 46.7324C20.03 46.4655 20.2038 45.8664 20.2478 45.585L20.2697 45.4443L20.0753 45.4453C19.5495 45.4469 18.7426 45.5737 18.2608 45.7315C17.4841 45.9855 17.074 46.3697 16.9676 46.9431C16.8844 47.3907 17.0645 47.8364 17.4158 48.0526C17.6976 48.2249 18.1657 48.2509 18.5598 48.1165Z" fill="white"/>
<path d="M24.4829 49.367C24.4983 49.2897 24.8413 47.4343 25.2442 45.246C25.6474 43.0563 25.9846 41.2312 25.9942 41.1907L26.0111 41.1162H27.2914C28.3899 41.1162 28.5719 41.1233 28.5719 41.1644C28.5719 41.1909 28.4969 41.6172 28.4055 42.1103C28.3139 42.6055 28.2394 43.0184 28.2394 43.029C28.2394 43.0405 28.3369 42.8733 28.4558 42.6581C28.716 42.1884 28.925 41.8915 29.1708 41.6435C29.5978 41.2112 29.9716 41.0655 30.8108 41.0039L31.037 40.9866L31.0192 41.0928C31.0097 41.1515 30.9485 41.6675 30.8839 42.2392C30.8195 42.8117 30.7596 43.3117 30.7512 43.3501C30.7371 43.4137 30.7067 43.4213 30.3941 43.439C29.5777 43.4842 29.0055 43.8014 28.5467 44.462C28.1054 45.0976 27.9721 45.5371 27.5904 47.6079C27.4702 48.2622 27.3422 48.9504 27.3062 49.1372C27.2702 49.3247 27.2408 49.4846 27.2408 49.493C27.2408 49.5009 26.6135 49.5085 25.8471 49.5085H24.4538L24.4829 49.367Z" fill="white"/>
<path d="M33.6287 49.6577C33.0815 49.5686 32.6603 49.3647 32.2756 49.0016C31.5927 48.3575 31.2682 47.4612 31.268 46.2194C31.2677 45.1637 31.4844 44.2375 31.9525 43.3007C32.8131 41.5763 34.0086 40.8176 35.6491 40.9554C36.2213 41.0032 36.6549 41.1847 36.9895 41.5163C37.1794 41.7057 37.4011 42.0755 37.4914 42.355C37.5275 42.4673 37.5375 42.4768 37.5598 42.4215C37.5741 42.3847 37.7553 41.4301 37.9624 40.2987L38.3386 38.2432H39.6768H41.0154L40.9936 38.3497C40.982 38.4096 40.5134 40.9399 39.9521 43.9745L38.9322 49.491L37.6787 49.4994C36.9895 49.5049 36.425 49.5041 36.425 49.4978C36.425 49.4912 36.4769 49.2062 36.5405 48.863C36.6038 48.52 36.6509 48.2341 36.6454 48.2289C36.6395 48.2228 36.5964 48.2744 36.55 48.3428C36.1214 48.9726 35.4737 49.4599 34.8446 49.6246C34.5633 49.6977 33.9739 49.7143 33.6287 49.6577V49.6577ZM35.5087 47.937C35.7675 47.8702 35.9988 47.7434 36.2136 47.5475C36.6263 47.1746 36.8488 46.5934 37.0538 45.3599C37.2085 44.4261 37.2371 44.1123 37.1929 43.8246C37.1179 43.3415 36.8695 42.9709 36.4832 42.7668C36.3089 42.6743 36.2313 42.6546 36.0059 42.6427C35.5174 42.6172 35.1389 42.8021 34.8441 43.2131C34.3537 43.8948 33.9951 45.3944 34.0359 46.5941C34.0489 46.9797 34.0634 47.0762 34.1347 47.2495C34.2316 47.4854 34.3217 47.6038 34.5225 47.7576C34.8051 47.9735 35.1357 48.0332 35.5087 47.937V47.937Z" fill="white"/>
<path d="M42.9893 49.4793C42.9893 49.4522 41.6784 41.3955 41.6437 41.2075L41.627 41.1162H43.0031C44.2857 41.1162 44.3795 41.1204 44.3944 41.1743C44.4015 41.2064 44.5649 42.3807 44.7546 43.784C44.9459 45.1881 45.1088 46.336 45.1191 46.336C45.1294 46.336 45.6325 45.1652 46.2372 43.7345L47.3355 41.1328L48.572 41.1246L49.8086 41.1162L49.825 41.1906C49.8337 41.2311 49.9545 42.3728 50.0928 43.7264C50.2316 45.0797 50.3529 46.223 50.363 46.2666C50.3723 46.3097 50.3913 46.3324 50.4062 46.3161C50.4194 46.2995 50.9913 45.1237 51.6769 43.7022L52.9221 41.1178H53.9436L54.9645 41.1162L54.5542 41.9504C54.3282 42.4093 53.3857 44.2971 52.4594 46.1456L50.7752 49.508H49.5778H48.381L48.3643 49.4333C48.3461 49.3502 47.7138 44.1835 47.7138 44.1177C47.7138 44.0922 47.7029 44.0885 47.6846 44.1072C47.6682 44.1248 47.1352 45.3472 46.4997 46.8228L45.3456 49.508H44.1676C43.5197 49.508 42.9893 49.4948 42.9893 49.4793V49.4793Z" fill="white"/>
<path d="M56.9483 49.7185C56.1586 49.5986 55.6514 49.3638 55.1941 48.9051C54.7796 48.4888 54.5796 47.9399 54.6132 47.3106C54.681 46.0433 55.6429 45.1425 57.3973 44.7012C58.1888 44.5019 59.8868 44.2881 60.6793 44.2881C60.8751 44.2881 60.8929 44.2812 60.9352 44.1963C61.0812 43.9067 61.1183 43.3934 61.0134 43.1249C60.9238 42.8942 60.647 42.6565 60.3707 42.571C60.1032 42.4887 59.6108 42.4811 59.2971 42.5544C58.7596 42.6809 58.353 42.9981 58.1117 43.4783C58.0389 43.6243 57.9766 43.7484 57.9737 43.7542L55.5716 43.5104C55.543 43.4812 55.7679 43.0239 55.9435 42.7569C56.4574 41.9748 57.2458 41.4317 58.2354 41.1814C59.3792 40.8902 60.8939 40.9002 61.8616 41.2024C62.8306 41.5056 63.457 42.1147 63.6404 42.9297C63.7447 43.3965 63.6888 43.8404 63.1755 46.6171C62.8814 48.2087 62.8454 48.4901 62.8602 49.0713L62.8706 49.5081H61.6015C60.4751 49.5081 60.3307 49.5013 60.3125 49.4553C60.2759 49.3606 60.291 48.8875 60.3443 48.5146C60.3718 48.3123 60.3903 48.1314 60.3837 48.1127C60.3779 48.0935 60.313 48.1814 60.2412 48.306C60.0664 48.6074 59.58 49.0931 59.2751 49.2715C58.993 49.4363 58.6015 49.5826 58.2442 49.6557C57.9875 49.708 57.1499 49.7488 56.9483 49.7185V49.7185ZM58.9705 48.1314C59.4714 47.9852 59.9734 47.5239 60.2748 46.9319C60.4497 46.5882 60.6277 46.0264 60.7066 45.5675L60.7281 45.4442H60.5469C60.0261 45.4442 59.1366 45.5849 58.6765 45.74C58.082 45.9415 57.7109 46.2255 57.5205 46.6253C57.4251 46.8246 57.4148 46.8785 57.4148 47.146C57.4161 47.48 57.4757 47.6551 57.6611 47.8637C57.9512 48.1927 58.4264 48.2897 58.9705 48.1314V48.1314Z" fill="white"/>
<path d="M64.9323 49.3842C64.9452 49.3153 65.2944 47.4309 65.7087 45.1968L66.4602 41.1331L67.7481 41.125C68.4572 41.12 69.0376 41.125 69.0376 41.1352C69.0376 41.1468 68.9632 41.5613 68.8707 42.058C68.7788 42.5543 68.7049 42.9806 68.7054 43.0059C68.7054 43.0293 68.7857 42.8993 68.8835 42.7153C69.1465 42.2187 69.3555 41.9239 69.6532 41.6288C69.9465 41.3382 70.1997 41.1857 70.5258 41.1018C70.7258 41.0511 71.4347 40.9782 71.4651 41.0066C71.4792 41.0187 71.254 43.0787 71.2127 43.3165L71.1952 43.4198L70.8392 43.4401C70.4379 43.4629 70.1761 43.524 69.8864 43.662C69.3438 43.9195 68.8074 44.5927 68.551 45.3407C68.3804 45.8351 68.2652 46.3932 67.7481 49.2193L67.6951 49.5088H66.3018H64.9087L64.9323 49.3842V49.3842Z" fill="white"/>
<path d="M75.2757 49.7183C74.6463 49.6494 74.1554 49.5087 73.6625 49.2552C72.3817 48.5959 71.6654 47.3769 71.6654 45.8563C71.6654 44.468 72.2333 43.1762 73.2844 42.171C74.1552 41.3387 75.1978 40.9495 76.5572 40.9463C77.8671 40.9437 78.7768 41.2824 79.5002 42.0445C80.0472 42.6197 80.3754 43.3201 80.4872 44.1503C80.524 44.4272 80.5105 45.2236 80.4618 45.5847L80.4417 45.7411H77.4211H74.4007L74.3756 46.0291C74.344 46.4099 74.3755 46.8049 74.4574 47.0379C74.6844 47.6888 75.3459 48.0731 76.126 48.0086C76.8227 47.9497 77.3387 47.5936 77.6875 46.9285L77.8184 46.6787L78.9339 46.8481C79.5468 46.9401 80.0549 47.0232 80.0639 47.0316C80.0949 47.0627 79.8435 47.5487 79.6377 47.8537C79.5037 48.0533 79.3039 48.2874 79.0933 48.4902C78.4332 49.1256 77.7 49.493 76.7575 49.6592C76.4775 49.7078 75.5345 49.7457 75.2757 49.7183V49.7183ZM78.0006 44.2797C78.0404 44.1324 78.0213 43.541 77.9728 43.3761C77.8083 42.8275 77.2656 42.4709 76.5941 42.4709C76.086 42.4709 75.6953 42.6142 75.3586 42.9237C75.0365 43.2201 74.8216 43.6009 74.6492 44.1806L74.5983 44.3544H76.2894H77.9805L78.0006 44.2797V44.2797Z" fill="white"/>
<path d="M29.1427 20.0332C29.1313 20.7693 28.85 22.0571 29.358 24.4196C29.358 24.4196 30.9072 35.7994 42.5787 36.024C45.9355 35.796 47.3522 35.1619 49.0798 34.3225C55.5642 31.1718 56.6426 24.1124 56.6426 24.1124H50.5428C47.0139 32.0205 40.1578 29.3667 40.1578 29.3667L44.0155 11.3737C51.4265 11.5751 51.7028 18.5068 51.7028 18.5068H57.904C57.904 18.5068 58.34 11.2248 51.1916 6.90497C49.7267 6.02053 47.3119 5.39803 44.9482 5.34307C44.9482 5.34281 31.7474 4.5207 29.1427 20.0332" fill="white"/>
<path d="M81.9666 7.29614L80.7582 12.9023H70.3719L69.1618 18.5082H79.5722L78.3881 24.1141H67.9775L66.7926 29.7195H77.2038L75.9937 35.3001H55.0209L60.9945 7.29614H81.9666Z" fill="white"/>
<path d="M15.9882 35.3493L12.6108 17.4805L0.612366 35.3493H15.9882Z" fill="white"/>
<path d="M30.6849 35.3492H19.2155L15.1827 13.626L24.1563 0.262939L30.6849 35.3492Z" fill="white"/>
<path d="M77.073 33.8965C77.073 33.0678 77.7498 32.4558 78.5511 32.4558C79.3421 32.4558 80.0189 33.0675 80.0189 33.8965C80.0189 34.7328 79.3421 35.3434 78.5511 35.3434C77.7495 35.3434 77.073 34.7328 77.073 33.8965ZM78.5511 35.1025C79.2078 35.1025 79.727 34.5913 79.727 33.8965C79.727 33.2116 79.2078 32.6967 78.5511 32.6967C77.8843 32.6967 77.3651 33.2116 77.3651 33.8965C77.3651 34.5913 77.8843 35.1025 78.5511 35.1025ZM78.2422 34.7328H77.9882V33.0678H78.626C79.0239 33.0678 79.2194 33.2119 79.2194 33.5417C79.2194 33.8394 79.0303 33.968 78.785 33.9985L79.2615 34.7328H78.9768L78.5347 34.0119H78.2422V34.7328V34.7328ZM78.5463 33.7965C78.7617 33.7965 78.954 33.7821 78.954 33.5246C78.954 33.3195 78.7651 33.2813 78.5882 33.2813H78.242V33.7965H78.5463Z" fill="white"/>
</svg>
