<svg width="78" height="36" viewBox="0 0 78 36" fill="none" xmlns="http://www.w3.org/2000/svg">
<path d="M63.7313 7.72094H59.3526V12.0947H63.7313C64.7706 12.0947 65.6067 12.9412 65.6067 13.9743C65.6067 15.0146 64.7706 15.8505 63.7313 15.8505H59.3526V20.2282H63.7313C67.1867 20.2282 69.9856 17.4267 69.9856 13.9743C69.9856 10.521 67.1867 7.72094 63.7313 7.72094ZM38.7773 30.8653C44.0187 30.8653 48.5361 27.7959 50.6463 23.3537H56.2279V30.8653H59.3526V23.3537H63.7313C68.9158 23.3537 73.1159 19.1538 73.1159 13.9743C73.1159 8.79354 68.9158 4.59211 63.7313 4.59211H56.2279V15.8505H51.7748C50.8666 9.48794 45.3934 4.59211 38.7773 4.59211H23.3787L8.06152 30.8653H11.7155L16.0933 23.3537H31.8342V30.8653H38.7773ZM77.4947 13.9743C77.4947 21.5725 71.3317 27.7313 63.7313 27.7313V35.2354H51.8509V29.3814C48.6368 32.9744 43.975 35.2354 38.7773 35.2354H27.4555V27.7313H18.6067L14.2289 35.2354H0.331879L20.759 0.214504H38.7773C43.975 0.214504 48.6368 2.48173 51.8509 6.07506V0.214504H63.7313C71.3317 0.214504 77.4947 6.37817 77.4947 13.9743ZM27.4555 7.72094V15.8505H20.4712L17.9202 20.2282H31.8342V7.72094H27.4555V7.72094ZM48.787 17.7249C48.787 23.252 44.3037 27.7313 38.7773 27.7313H34.9608V23.3537H38.7773C41.8887 23.3537 44.41 20.8371 44.41 17.7249C44.41 14.6194 41.8887 12.0947 38.7773 12.0947H34.9608V7.72094H38.7773C44.3037 7.72094 48.787 12.2002 48.787 17.7249Z" fill="white"/>
</svg>
