<svg width="56" height="56" viewBox="0 0 56 56" fill="none" xmlns="http://www.w3.org/2000/svg">
<rect width="56" height="56" rx="28" fill="#5EF8FF" fill-opacity="0.08"/>
<path d="M31.5 33.5L33.75 35.75C34.2139 36.2143 34.4744 36.8437 34.4744 37.5C34.4744 38.1563 34.2139 38.7857 33.75 39.25V39.25" stroke="#42F7FF" stroke-width="1.5" stroke-miterlimit="10" stroke-linecap="square"/>
<path d="M13 26V14H23.1C23.4009 14.0002 23.7015 14.0196 24 14.058" stroke="#42F7FF" stroke-width="1.5" stroke-miterlimit="10" stroke-linecap="square"/>
<path d="M15.7502 28.25L15.2503 28.7499C14.2838 29.7165 14.2838 31.2835 15.2503 32.2501C16.2169 33.2166 17.7839 33.2166 18.7505 32.2501L19.2504 31.7502C20.217 30.7836 20.217 29.2165 19.2504 28.25C18.2839 27.2834 16.7168 27.2834 15.7502 28.25Z" stroke="#42F7FF" stroke-width="1.5" stroke-miterlimit="10" stroke-linecap="square"/>
<path d="M19.3872 31.6129L18.6122 32.3879C17.6456 33.3544 17.6456 34.9215 18.6122 35.888C19.5787 36.8546 21.1458 36.8546 22.1124 35.888L22.8873 35.113C23.8539 34.1465 23.8539 32.5794 22.8873 31.6129C21.9208 30.6463 20.3537 30.6463 19.3872 31.6129Z" stroke="#42F7FF" stroke-width="1.5" stroke-miterlimit="10" stroke-linecap="square"/>
<path d="M22.6147 35.3854L22.1148 35.8853C21.1483 36.8518 21.1483 38.4189 22.1148 39.3855C23.0814 40.352 24.6484 40.352 25.615 39.3855L26.1149 38.8855C27.0815 37.919 27.0815 36.3519 26.1149 35.3854C25.1484 34.4188 23.5813 34.4188 22.6147 35.3854Z" stroke="#42F7FF" stroke-width="1.5" stroke-miterlimit="10" stroke-linecap="square"/>
<path d="M26.1534 38.847L25.6337 39.3667C24.8054 40.195 24.8054 41.5379 25.6337 42.3662L25.6344 42.3669C26.4627 43.1952 27.8057 43.1952 28.634 42.3669L29.1537 41.8472C29.982 41.0189 29.982 39.676 29.1537 38.8477L29.153 38.847C28.3247 38.0187 26.9817 38.0187 26.1534 38.847Z" stroke="#42F7FF" stroke-width="1.5" stroke-miterlimit="10" stroke-linecap="square"/>
<path d="M35 30L38.025 33.025C38.2549 33.2548 38.4373 33.5276 38.5617 33.8278C38.6862 34.1281 38.7502 34.45 38.7502 34.775C38.7502 35.1 38.6862 35.4219 38.5617 35.7222C38.4373 36.0224 38.2549 36.2952 38.025 36.525C37.7952 36.7549 37.5224 36.9373 37.2222 37.0617C36.9219 37.1862 36.6 37.2502 36.275 37.2502C35.95 37.2502 35.6281 37.1862 35.3278 37.0617C35.0276 36.9373 34.7548 36.7549 34.525 36.525" stroke="#42F7FF" stroke-width="1.5" stroke-miterlimit="10" stroke-linecap="square"/>
<path d="M37.75 32.75C38.2143 33.2139 38.8437 33.4744 39.5 33.4744C40.1563 33.4744 40.7857 33.2139 41.25 32.75C41.7139 32.2857 41.9744 31.6563 41.9744 31C41.9744 30.3437 41.7139 29.7143 41.25 29.25L32 20" stroke="#42F7FF" stroke-width="1.5" stroke-miterlimit="10"/>
<path d="M32 20L25.1 25.173C24.7686 25.4215 24.3745 25.5728 23.9619 25.6101C23.5494 25.6473 23.1346 25.5691 22.764 25.384V25.384C22.4479 25.2259 22.1739 24.995 21.9645 24.7103C21.7552 24.4255 21.6166 24.0951 21.56 23.7462C21.5035 23.3974 21.5306 23.0401 21.6393 22.7038C21.748 22.3675 21.935 22.0618 22.185 21.812L27.95 16.05C28.6001 15.4 29.3718 14.8844 30.2211 14.5327C31.0704 14.1809 31.9807 13.9999 32.9 14H43V26" stroke="#42F7FF" stroke-width="1.5" stroke-miterlimit="10" stroke-linecap="square"/>
</svg>
