<svg width="134" height="56" viewBox="0 0 134 56" fill="none" xmlns="http://www.w3.org/2000/svg">
<path d="M115.714 24.46C113.47 24.9735 107.545 25.2588 107.545 25.2588L106.816 27.5793C106.816 27.5793 109.75 27.332 111.898 27.5412C111.898 27.5412 112.588 27.4842 112.665 28.3021C112.703 29.139 112.607 30.0139 112.607 30.0139C112.607 30.0139 112.55 30.5274 111.84 30.6606C111.016 30.7937 105.454 31.041 105.454 31.041L104.553 34.0462C104.553 34.0462 104.227 34.7309 104.975 34.5407C105.665 34.3505 111.495 33.2473 112.262 33.3995C113.068 33.5897 113.988 34.6929 113.72 35.6819C113.413 36.8802 107.583 40.5701 104.054 40.3229C104.054 40.3229 102.194 40.437 100.641 37.9453C99.1447 35.5678 101.158 31.098 101.158 31.098C101.158 31.098 100.257 29.0058 100.928 28.245C100.928 28.245 101.312 27.9217 102.462 27.8266L103.901 24.8974C103.901 24.8974 102.271 24.9925 101.312 23.8133C100.43 22.6721 100.353 22.1775 101.043 21.8732C101.772 21.4928 108.523 20.2945 113.164 20.4467C113.164 20.4467 114.794 20.2565 116.232 23.0525C116.232 23.0525 116.884 24.1937 115.733 24.46M98.2242 35.72C97.6489 37.1084 96.0571 38.573 94.1394 37.6791C92.1832 36.7661 89.0956 30.5274 89.0956 30.5274C89.0956 30.5274 87.945 28.207 87.7148 28.283C87.7148 28.283 87.4655 27.8266 87.3313 30.3753C87.1395 32.905 87.3696 37.8312 86.3149 38.611C85.356 39.3719 84.2053 39.0485 83.5533 38.1546C83.0163 37.2606 82.7862 35.1113 83.093 31.3643C83.4382 27.6173 84.3012 23.6231 85.3943 22.3868C86.545 21.1314 87.4655 22.0444 87.8107 22.3868C87.8107 22.3868 89.2874 23.7182 91.7805 27.6554L92.2024 28.3781C92.2024 28.3781 94.4654 32.1251 94.6955 32.1061C94.6955 32.1061 94.8873 32.2963 95.0407 32.1442C95.2708 32.0871 95.1941 30.8698 95.1941 30.8698C95.1941 30.8698 94.7722 26.8185 92.6627 19.9712C92.6627 19.9712 92.3558 19.0962 92.5668 18.2594C92.7586 17.4985 93.5832 17.8789 93.5832 17.8789C93.5832 17.8789 96.7667 19.4006 98.3201 24.536C99.8543 29.6715 98.8187 34.3315 98.2434 35.72M82.6136 22.5389C82.3067 23.0715 82.1725 23.8133 80.8492 24.0225C80.8492 24.0225 68.0002 24.9164 67.3673 25.8104C67.3673 25.8104 66.9454 26.343 67.6358 26.4761C68.3646 26.6283 71.2796 27.0087 72.6604 27.0848C74.1562 27.0848 79.1808 27.1228 81.0218 29.3672C81.0218 29.3672 82.0766 30.4323 82.0383 32.8479C81.9999 35.3205 81.5588 36.1955 80.5807 37.0894C79.5643 37.9263 70.8577 41.8065 65.2386 35.8721C65.2386 35.8721 62.6688 33.0191 66.14 30.8508C66.14 30.8508 68.6331 29.3292 75.0192 31.098C75.0192 31.098 76.937 31.7828 76.8603 32.4865C76.7452 33.2473 75.2685 34.0081 73.1206 33.9701C71.0494 33.913 69.5152 32.924 69.8221 33.0952C70.1097 33.1903 67.5783 31.8779 66.792 32.7718C66.0249 33.6087 66.2167 34.1032 66.9838 34.6168C68.9015 35.72 76.4384 35.3205 78.6822 32.8289C78.6822 32.8289 79.5835 31.8208 78.2219 31.0029C76.8795 30.2421 72.9672 29.7666 71.4522 29.7096C70.0138 29.6335 64.6249 29.7096 63.8195 28.3211C63.8195 28.3211 63.0523 27.332 63.8962 24.6311C64.7783 21.7781 71.0494 20.6749 73.7727 20.4467C73.7727 20.4467 81.252 20.1424 82.6519 21.664C82.6519 21.664 82.8437 22.0063 82.6136 22.5199M61.4031 39.2577C60.5017 39.9234 58.5839 39.6381 58.0278 38.8773C57.4908 38.2116 57.299 35.5868 57.3949 31.4594C57.5292 27.2369 57.5867 22.0634 58.5456 21.2265C59.5045 20.4086 60.0798 21.1314 60.4634 21.683C60.8469 22.2536 61.3455 22.8813 61.4222 24.1937C61.5373 25.5251 61.8633 32.3724 61.8633 32.3724C61.8633 32.3724 62.2852 38.611 61.4222 39.2577M63.3208 17.004C60.6743 17.898 58.8716 17.6127 57.3374 16.947C56.6662 18.1452 56.2635 18.5066 55.7648 18.5827C54.9977 18.6588 54.3265 17.4415 54.2306 17.0611C54.0772 16.7758 53.7128 16.2622 54.1539 15.102C52.658 13.7706 52.543 11.9827 52.8115 10.7844C53.1567 9.37688 55.6881 4.08925 63.3592 3.46158C63.3592 3.46158 67.118 3.19529 67.7701 5.1734H67.8851C67.8851 5.1734 71.5289 5.1734 71.4522 8.40685C71.4522 11.6403 67.4249 15.6726 63.3208 17.0611M66.7345 7.7982C64.3181 8.17861 60.5976 11.374 58.8141 14.0178C61.5565 14.5124 66.3509 14.3222 68.4988 10.0236C68.4988 10.0236 69.5152 7.32269 66.7345 7.7982ZM56.1292 9.89043C55.3621 11.1267 55.3237 11.8685 55.6881 12.3631C56.5895 11.0316 58.1812 8.93942 60.5784 7.30367C58.7374 7.49388 57.184 8.25469 56.1292 9.89043ZM121.468 39.1246C119.703 43.4232 118.207 47.7788 117.344 54.3028C117.344 54.3028 117.153 55.5771 116.098 55.1587C115.043 54.7783 113.317 53.0665 112.933 50.6509C112.55 47.4935 113.969 42.1678 116.865 36.0433C116.021 34.7119 115.427 32.7338 115.906 29.9568C115.906 29.9568 116.673 24.8213 121.851 20.1804C121.851 20.1804 122.465 19.6669 122.81 19.838C123.232 20.0282 123.059 21.664 122.714 22.5009C122.407 23.2997 120.106 27.2559 120.106 27.2559C120.106 27.2559 118.668 29.9568 119.07 32.0681C121.794 27.9217 127.988 19.5147 131.824 22.1775C134.259 23.8894 134.259 29.4052 132.437 32.6006C130.999 35.1303 126.933 40.3609 121.506 39.1436M129.484 26.2098C128.065 27.7315 125.533 30.6225 123.539 34.5407C125.648 34.3125 127.7 33.1522 128.333 32.5626C129.35 31.6686 131.689 29.2531 131.325 26.0577C131.325 26.0577 131.095 24.3839 129.484 26.2098M43.5678 41.369C36.7789 43.4232 30.3736 42.4722 26.8832 41.5592C26.7874 42.9667 26.6339 43.5563 26.4038 43.7846C26.1353 44.0889 23.9107 45.3442 22.6833 43.5563C22.1464 42.7004 21.8779 41.1598 21.7245 39.7523C13.8616 36.2145 10.2178 31.0029 10.1028 30.8127C9.911 30.6225 8.12748 28.7776 9.911 26.4951C11.5795 24.4409 17.1026 22.3677 22.0505 21.5499C22.2422 17.3654 22.7025 14.132 23.297 12.7054C24.0066 10.9936 24.9079 12.5152 25.7134 13.6564C26.3654 14.5124 26.7682 18.1833 26.8065 21.1124C30.0284 20.9602 31.9845 21.1885 35.5707 21.8732C40.2884 22.6721 43.4336 25.0686 43.1843 27.7695C42.9541 30.4323 40.4994 31.5355 39.5405 31.6116C38.5816 31.6877 37.0474 30.9839 37.0474 30.9839C35.9735 30.4894 36.9515 30.0329 38.1981 29.5003C39.5789 28.8346 39.272 28.1689 39.272 28.1689C38.7734 26.6473 32.6557 25.6392 26.5764 25.6392C26.5764 28.9678 26.7106 34.4836 26.8065 37.6981C31.064 38.4969 34.2475 38.3257 34.2475 38.3257C34.2475 38.3257 49.7814 37.8883 50.2225 28.0548C50.7019 18.2023 34.6886 8.76824 22.8943 5.80107C11.1192 2.73881 4.44536 4.90712 3.87003 5.19242C3.23717 5.49675 3.8125 5.61087 3.8125 5.61087C3.8125 5.61087 4.44536 5.70597 5.59602 6.08638C6.74669 6.46678 5.82616 7.03739 5.82616 7.03739C3.8125 7.72212 1.56871 7.32269 1.12763 6.40972C0.686539 5.51577 1.41529 4.6979 2.27829 3.49962C3.08375 2.2633 4.00428 2.30134 4.00428 2.30134C18.5793 -2.73903 36.3762 6.2956 36.3762 6.2956C53.0224 14.6265 55.8607 24.4219 55.5539 28.226C55.2854 31.973 53.8279 38.3067 43.5678 41.388M11.5411 27.7695C9.89182 28.5303 11.0425 29.7476 11.0425 29.7476C14.1493 33.0381 17.9464 35.1113 21.5902 36.4047C22.0121 30.6986 21.9738 28.6634 21.9738 25.7914C16.3355 26.1718 13.0753 27.0848 11.5411 27.7695Z" fill="white"/>
</svg>
