<svg width="24" height="25" viewBox="0 0 24 25" fill="none" xmlns="http://www.w3.org/2000/svg">
<g clip-path="url(#clip0_561_55798)">
<path d="M22 4.01197C21 4.50197 20.02 4.70097 19 5.00197C17.879 3.73697 16.217 3.66697 14.62 4.26497C13.023 4.86297 11.977 6.32497 12 8.00197V9.00197C8.755 9.08497 5.865 7.60697 4 5.00197C4 5.00197 -0.182 12.435 8 16.002C6.128 17.249 4.261 18.09 2 18.002C5.308 19.805 8.913 20.425 12.034 19.519C15.614 18.479 18.556 15.796 19.685 11.777C20.0218 10.5546 20.189 9.29183 20.182 8.02397C20.18 7.77497 21.692 5.25197 22 4.01097V4.01197Z" stroke="#42F7FF" stroke-width="1.5" stroke-linecap="round" stroke-linejoin="round"/>
</g>
<defs>
<clipPath id="clip0_561_55798">
<rect width="24" height="24" fill="white" transform="translate(0 0.00195312)"/>
</clipPath>
</defs>
</svg>
