<svg width="203" height="43" viewBox="0 0 203 43" fill="none" xmlns="http://www.w3.org/2000/svg">
<path d="M188.558 12.3525V32.8432L202.072 22.6007L188.558 12.3525Z" fill="white"/>
<path d="M33.7776 38.9705C33.7776 40.6249 32.4883 42.1287 30.6153 42.1287H27.4541V19.0011C27.8222 12.8484 30.0614 7.94458 39.4166 7.61011C43.463 7.66088 46.3991 9.26816 48.1339 11.2953C49.9932 13.711 50.7907 16.7124 50.7907 20.4873C50.7907 24.3879 49.8605 27.5463 48 29.9617C46.1407 32.3151 43.755 33.4912 40.8419 33.4912C36.4725 33.4912 34.3502 31.674 33.773 31.3329C33.7732 31.5438 33.7776 38.9705 33.7776 38.9705ZM44.375 20.7662C44.375 18.3517 43.9319 13.2427 38.9828 13.2427C34.2832 13.2427 33.7776 18.2274 33.7776 20.7662C33.7776 27.1943 37.4339 28.0107 39.1686 28.0107C43.6616 28.0109 44.375 23.2501 44.375 20.7662Z" fill="white"/>
<path d="M3.93058 30.7757C6.02544 32.5629 9.17148 33.4543 13.3656 33.4543C17.4364 33.4543 20.5824 32.5939 22.8017 30.868C25.0212 29.0195 26.1327 26.4322 26.1327 23.1058C26.1327 21.5664 25.8304 20.1459 25.1148 18.8534C24.4593 17.6704 23.3465 16.5542 22.001 15.881C21.1471 15.4554 20.6274 15.2699 19.5772 14.9469C18.444 14.5999 12.7999 13.0617 12.23 12.9118C9.08616 12.1462 7.08952 11.1004 7.0756 9.24171C7.23836 5.64774 10.5909 5.36062 12.4421 5.36062C14.3511 5.36062 15.8641 5.76179 16.9733 6.5621C18.9653 8.11075 18.7437 10.0777 18.7437 10.0777H25.021C24.8976 6.99672 23.7873 4.49926 21.6915 2.58873C19.6567 0.863785 16.7565 0 12.9964 0C8.98694 0 5.93529 0.832554 3.83821 2.49524C1.74112 4.2214 0.693186 6.59313 0.693186 9.61184C0.702463 13.4895 2.5422 15.776 4.2089 16.8205C5.22094 17.4258 7.52132 18.3541 10.4989 18.9456L12.9998 19.4899C17.3372 20.5461 19.8267 21.8838 19.7493 24.0294C19.7021 25.322 19.2566 26.3101 18.2685 26.9871C17.3658 27.6038 15.8308 28.0016 13.9219 28.0016C11.7613 28.0016 10.0671 27.5726 8.83446 26.709C7.66189 25.97 6.95076 24.6762 6.70612 22.8279H0.231537C0.416277 26.3389 1.64875 28.9897 3.93058 30.7757Z" fill="white"/>
<path d="M63.5485 13.0618C67.5246 13.0076 68.142 16.3894 68.2656 18.0533H58.8305C58.8305 18.0533 58.7509 13.1505 63.5485 13.0618ZM63.8268 27.9418C62.2238 27.861 59.1722 27.5475 58.8928 22.2122L74.9225 22.2157C74.9249 22.0518 74.9225 20.2959 74.9271 20.2935C74.8162 16.2727 73.8501 13.2772 71.9654 11.0288C69.9295 8.81038 67.0626 7.70239 63.3625 7.70239C59.8494 7.70239 57.1037 8.84282 55.1313 11.1211C53.2189 13.3384 52.262 16.4204 52.262 20.3626C52.262 24.4915 53.2478 27.6635 55.2237 29.8809C57.1973 32.1614 59.9418 33.3008 63.4549 33.3008C66.3553 33.3008 68.7593 32.594 70.6704 31.1757C72.5818 29.8209 73.8858 27.8424 74.5647 25.2537L68.9949 25.2549C68.1756 27.5773 66.0808 28.0546 63.8268 27.9418Z" fill="white"/>
<path d="M171.181 32.873H164.768V17.0835C164.768 15.2628 164.018 12.8103 160.398 12.8103C156.846 12.8103 156.122 15.5983 156.122 17.0835V32.8732H149.613V18.3841C149.613 14.1744 150.863 11.602 152.913 9.93242C154.945 8.27779 157.545 7.73478 160.211 7.61026C161.636 7.61026 163.033 7.76601 164.395 8.07389C165.759 8.3864 166.999 9.00315 168.115 9.93262C169.046 9.12888 170.144 8.55484 171.415 8.21352C172.685 7.87441 174 7.61751 175.366 7.61046C183.304 7.56895 186.49 11.1998 186.754 12.3644C186.754 12.3817 186.756 32.8734 186.756 32.8734H183.082C182.154 32.8734 179.922 32.2427 179.922 29.7165V17.0835C179.939 15.2941 179.311 12.8103 175.552 12.8103C171.831 12.8103 171.181 15.5983 171.181 17.0835V32.873V32.873Z" fill="white"/>
<path d="M92.6004 25.263H98.6815C98.6815 25.263 97.031 33.3008 87.8444 33.3008C78.6596 33.3008 76.3986 25.9376 76.3986 21.0983C76.3986 16.2601 77.2585 7.994 87.4874 7.70446C96.9388 7.56261 98.4968 15.7435 98.4968 15.7435H92.021C92.021 15.7435 91.3944 12.9784 87.5394 13.0651C83.6859 13.1527 82.6781 16.7687 82.6781 20.2047C82.6781 23.6419 83.5345 27.9416 87.8141 27.9416C91.8827 28.066 92.2416 25.8673 92.6004 25.263Z" fill="white"/>
<path d="M126.339 8.25122H132.814V23.9613C132.814 23.9613 132.581 28.2103 137.071 28.2126C141.304 28.215 141.412 24.4111 141.416 24.1425V11.3C141.416 11.3 141.634 8.25142 144.441 8.25142H147.802C147.802 8.25142 147.798 22.7036 147.802 22.8419C147.756 23.6373 148.649 33.3022 137.071 33.2631C125.6 33.2631 126.412 23.4854 126.339 22.91V8.25122V8.25122Z" fill="white"/>
<path d="M106.529 14.8258H110.331L110.328 8.34909H106.536V4.18914C106.536 3.04871 105.901 1.04712 103.484 1.04712H100.154V28.2196C100.154 31.0527 101.254 32.7476 103.636 32.7476C103.663 32.7476 106.429 32.7498 106.53 32.7498L106.529 14.8258Z" fill="white"/>
<path d="M117.108 32.7947V20.1332C117.108 18.2861 117.538 16.9301 118.404 16.0675C119.266 15.2051 120.591 14.7727 122.381 14.7727H124.506V8.21184C124.506 8.21184 121.158 8.12882 118.725 8.85862C117.164 9.32789 115.781 9.96782 114.611 10.8902C113.374 11.8771 112.405 13.187 111.696 14.8187C110.987 16.4513 110.633 18.4691 110.633 20.872V32.7943H117.108V32.7947Z" fill="white"/>
</svg>
