<svg width="145" height="32" viewBox="0 0 145 32" fill="none" xmlns="http://www.w3.org/2000/svg">
<path fill-rule="evenodd" clip-rule="evenodd" d="M133.847 23.6522C133.475 23.6522 133.101 23.4634 132.667 23.2125C137.453 19.2573 140.125 16.5585 140.125 14.2358C140.125 11.536 137.328 10.0922 136.148 10.0922C130.74 10.0922 128.005 16.558 127.446 21.7692C126.7 22.5224 125.767 23.0242 124.835 23.0242C124.152 23.0242 123.779 22.7102 123.779 22.1458C123.779 21.7692 124.028 20.8272 124.711 19.5091L128.875 11.3477H124.213L120.485 18.755C119.366 20.9524 118.184 22.2079 117.377 22.2079C117.066 22.2079 116.818 22.0201 116.818 21.6435C116.818 21.0781 117.936 18.755 118.184 18.3163L121.79 11.3477H117.066L113.461 17.9397C111.845 20.9529 109.98 22.5855 108.178 22.5855C107.557 22.5855 107.183 22.3967 106.623 22.0201C111.782 17.2486 117.376 9.77824 117.376 4.31658C117.376 1.93129 115.698 0.361328 113.957 0.361328C107.743 0.361328 101.962 11.4729 101.775 20.8898C100.16 22.4588 98.7923 23.1494 97.922 23.1494C97.176 23.1494 96.7407 22.8364 96.7407 22.271C96.7407 21.8318 97.0518 20.7011 98.1701 18.4415L101.713 11.3477H97.2386L96.8659 11.85C95.7471 11.0342 94.9385 10.5945 93.509 10.5945C88.7228 10.5945 83.5642 17.3117 83.5642 22.3331C83.5642 25.7861 85.429 27.7953 87.853 27.7953C89.345 27.7953 90.5881 27.2304 93.0737 25.4721C93.5716 27.1052 94.3793 27.7953 96.3062 27.7953C98.1084 27.7953 99.5379 27.1673 102.646 25.2843C103.454 27.1047 104.262 27.7953 106.188 27.7953C108.053 27.7953 109.545 26.9795 112.218 24.8451C112.528 26.7281 113.274 27.7953 115.139 27.7953C116.568 27.7953 117.563 27.0421 120.297 24.782C120.857 26.6024 121.851 27.7953 123.778 27.7953C124.959 27.7953 125.954 27.4187 128.937 25.7861C129.931 27.0416 130.989 27.7953 132.791 27.7953C135.028 27.7953 137.266 26.7281 139.503 25.0965L138.509 21.4547C136.707 22.7733 134.904 23.6522 133.847 23.6522ZM91.8456 20.8759C90.7268 22.3192 89.6701 22.9472 88.9246 22.9472C88.3033 22.9472 87.8058 22.5084 87.8058 21.7548C87.8058 19.6194 91.1621 14.7862 93.1512 14.7862C93.9598 14.7862 94.3326 15.3511 94.3326 16.0417C94.3321 16.7323 93.8341 18.3023 91.8456 20.8759ZM108.479 10.3008C109.971 7.47578 111.649 5.5297 112.395 5.5297C112.706 5.5297 113.017 5.84321 113.017 6.34598C113.017 8.10328 109.784 13.3771 106.615 16.2647C106.988 13.7532 107.36 12.4351 108.479 10.3008ZM136.016 13.6001C136.265 13.6001 136.389 13.851 136.389 14.1024C136.389 15.107 135.27 16.6129 132.038 18.6851C132.536 16.9909 134.09 13.6001 136.016 13.6001Z" fill="white"/>
<path fill-rule="evenodd" clip-rule="evenodd" d="M61.0455 21.0578C58.4347 23.0044 57.3785 23.4431 56.384 23.4431C55.9491 23.4431 55.5758 23.3184 54.9541 23.0044C58.9943 20.1168 62.2885 16.2872 62.2885 13.1483C62.2885 11.6419 60.4237 9.63269 58.4352 9.63269C54.1469 9.63269 50.2309 15.9106 50.0445 21.6232C48.9879 22.439 48.1181 22.8787 47.2473 22.8787C46.4392 22.8787 46.0043 22.5021 46.0043 22.1876C46.0043 21.8741 46.3149 21.0573 47.807 18.1697L51.2876 11.3274H46.1902L43.2071 17.6679C41.6534 20.9957 40.3478 22.5021 39.4158 22.5021C39.1668 22.5021 38.9183 22.2512 38.9183 21.9367C38.9183 21.7484 38.8562 21.3097 40.0371 18.9865L43.8905 11.3279H39.1668L36.7429 16.2241C34.6917 20.4298 32.392 22.5652 31.2732 22.5652C30.9005 22.5652 30.6515 22.3764 30.6515 21.9998C30.6515 21.8115 30.5893 21.5601 31.4596 19.8023L35.6246 11.3279H29.4089L29.4706 10.449L26.0521 8.3772L17.1023 25.5784L20.5829 27.7759L27.6684 15.0317H29.2225L25.99 21.812C25.1202 23.6324 24.9338 24.009 24.9338 24.9505C24.9338 26.8031 26.3632 27.7764 27.9174 27.7764C29.471 27.7764 30.9626 27.0222 34.1326 25.0135C34.6922 27.0222 35.4377 27.7764 36.9298 27.7764C38.6703 27.7764 40.3482 26.8965 42.4615 25.3275C42.8338 27.0853 43.4556 27.7764 45.2583 27.7764C46.8741 27.7764 48.1176 27.3362 51.2245 25.7041C52.7165 27.2731 53.711 27.7764 55.1405 27.7764C56.7563 27.7764 59.4913 26.583 62.3502 24.5112L61.0455 21.0578ZM58.0133 13.4184C58.2613 13.4184 58.3239 13.6072 58.3239 13.8581C58.3239 15.1762 55.5893 17.8129 54.5322 18.5035C54.9054 17.1218 56.5838 13.4184 58.0133 13.4184Z" fill="white"/>
<path fill-rule="evenodd" clip-rule="evenodd" d="M49.9867 7.13134H56.0777C56.8237 6.31554 57.2586 6.31554 59.6199 6.31554H70.9941L65.525 24.3326C65.0275 25.9025 64.8411 26.9702 64.8411 27.7855C64.8411 29.9512 66.519 31.4576 68.8813 31.4576C70.932 31.4576 72.6104 30.3274 74.5374 27.7855L89.0815 8.57561C90.6969 6.44075 91.4429 5.68755 93.6809 4.87175L91.5671 0.0375977C89.0189 0.72819 87.9628 1.67017 85.4762 4.93435L70.3729 24.9601L77.9554 1.29309L58.688 1.23C52.5971 1.23048 50.1731 2.92566 49.9867 7.13134Z" fill="white"/>
<path fill-rule="evenodd" clip-rule="evenodd" d="M0.412033 29.8386C2.33848 30.2783 3.45726 30.5297 5.01143 30.5297C9.54869 30.5297 12.0964 28.6775 14.0233 24.9736L23.9065 6.3286H34.2236L36.8965 1.30615H14.4587C9.85981 1.30615 8.36778 1.87105 5.81957 3.88022L8.30613 7.7093C10.4194 6.64211 11.4756 6.3286 14.3349 6.3286H18.0646L10.17 21.6459C8.67842 24.5966 7.31112 25.6642 4.5144 25.6642C3.89264 25.6642 3.39514 25.6007 2.33848 25.4133L0.412033 29.8386Z" fill="white"/>
<path fill-rule="evenodd" clip-rule="evenodd" d="M143.38 24.1978C142.554 24.1978 141.856 24.8469 141.856 25.7282C141.856 26.6182 142.554 27.2669 143.38 27.2669C144.197 27.2669 144.895 26.6177 144.895 25.7282C144.896 24.8464 144.198 24.1978 143.38 24.1978ZM143.38 27.0117C142.694 27.0117 142.158 26.4679 142.158 25.7282C142.158 25.0015 142.694 24.4535 143.38 24.4535C144.058 24.4535 144.594 25.002 144.594 25.7282C144.594 26.4679 144.058 27.0117 143.38 27.0117Z" fill="white"/>
<path fill-rule="evenodd" clip-rule="evenodd" d="M143.622 25.8375C143.876 25.8053 144.071 25.6671 144.071 25.3502C144.071 25.001 143.869 24.8464 143.46 24.8464H142.802V26.6177H143.063V25.8496H143.365L143.821 26.6177H144.114L143.622 25.8375ZM143.063 25.6247V25.0762H143.42C143.603 25.0762 143.797 25.1171 143.797 25.3362C143.797 25.6078 143.599 25.6247 143.376 25.6247H143.063V25.6247Z" fill="white"/>
</svg>
