<svg width="147" height="33" viewBox="0 0 147 33" fill="none" xmlns="http://www.w3.org/2000/svg">
<path d="M143.189 0.673584L135.229 17.6889L132.236 11.2417H128.999L133.921 21.7877H136.537L146.403 0.673584H143.189Z" fill="white"/>
<path d="M109.046 32.2671H115.453V20.5469C115.453 17.8661 117.005 15.9829 119.311 15.9829C121.528 15.9829 122.681 17.5338 122.681 19.7715V32.2671H129.088V18.553C129.088 13.9003 126.295 10.6213 121.772 10.6213C118.889 10.6213 116.872 11.862 115.364 14.1219H115.231V11.2417H109.023L109.046 32.2671ZM96.4526 10.6656C89.757 10.6656 85.2785 15.4734 85.2785 21.8098C85.2785 28.1019 89.757 32.9539 96.4526 32.9539C103.148 32.9539 107.627 28.1019 107.627 21.8098C107.649 15.4734 103.148 10.6656 96.4526 10.6656ZM96.4083 28.2127C93.3709 28.2127 91.7524 25.6648 91.7524 21.8098C91.7524 17.9105 93.3487 15.4069 96.4083 15.4069C99.4457 15.4069 101.131 17.9105 101.131 21.8098C101.153 25.6648 99.4679 28.2127 96.4083 28.2127ZM67.0098 32.2671H85.0125V27.2157H74.8139V27.0828L84.5691 16.1602V11.2195H67.0098V16.2931H76.8758V16.426L67.0098 27.4373V32.2671ZM58.7844 32.2671H65.2361V11.2417H58.7844V32.2671ZM43.8191 32.2671H50.2487V22.6074C50.2487 18.2206 52.887 16.271 56.8999 16.8248H57.0329V11.286C56.7004 11.1531 56.3235 11.1309 55.7249 11.1309C53.2195 11.1309 51.5346 12.283 50.0935 14.7422H49.9604V11.2417H43.8191V32.2671ZM32.0243 28.2349C29.1864 28.2349 27.4571 26.396 27.1245 23.5601H42.2893C42.3337 19.0404 41.1365 15.4291 38.6312 13.1692C36.8575 11.5297 34.5296 10.6213 31.5587 10.6213C25.2178 10.6213 20.828 15.4291 20.828 21.7212C20.828 28.0576 25.0183 32.8875 31.9799 32.8875C34.6182 32.8875 36.7023 32.1785 38.4316 31.0043C40.2718 29.7414 41.602 27.8804 41.9568 26.0415H35.7933C35.1947 27.4151 33.9088 28.2349 32.0243 28.2349ZM31.6917 15.2075C33.9531 15.2075 35.5051 16.8913 35.7711 19.3506H27.1688C27.6788 16.8692 29.0312 15.2075 31.6917 15.2075ZM8.01327 32.2671H14.7532L22.0696 11.2417H15.6179L11.5163 24.7565H11.4276L7.32597 11.2417H0.696899L8.01327 32.2671ZM58.7844 3.75317H65.2361V9.46926H58.7844V3.75317Z" fill="white"/>
</svg>
